# xmcd
# 
# Track frame offsets:
#     150
#     20066
#     41278
#     57954
#     80597
#     119521
#     142650
#     164267
#     184372
#     198051
#     230468
#     259132
# 
# Disc length: 3706
# 
# Revision: 0
# Processed by: cddbd v1.5.2PL0 Copyright (c) Steve Scherf et al.
# Submitted via: BonkEnc v1.0.8
# 
DISCID=9d0e780c
DTITLE=Eric Clapton and B.B. King - Riding With the King
DYEAR=2000
DGENRE=Blues
TTITLE0=Riding With the King
TTITLE1=Ten Long Years
TTITLE2=Key to the Highway
TTITLE3=Marry You
TTITLE4=Three O'Clock Blues
TTITLE5=Help The Poor
TTITLE6=I Wanna Be
TTITLE7=Worried Life Blues
TTITLE8=Days of Old
TTITLE9=When My Heart Beats Like a Hammer
TTITLE10=Hold On I'm Coming
TTITLE11=Come Rain or Come Shine
EXTD=YEAR: 2000 ID3G:   0
EXTT0=
EXTT1=
EXTT2=
EXTT3=
EXTT4=
EXTT5=
EXTT6=
EXTT7=
EXTT8=
EXTT9=
EXTT10=
EXTT11=
PLAYORDER=
